<svg width="105" height="115" viewBox="0 0 105 115" fill="none" xmlns="http://www.w3.org/2000/svg">
<path d="M78.833 0.5V10.2619H69.0712V0.5H30.0237V10.2619H20.2619V0.5H10.5V88.3568H20.2619V78.5949H30.0237V88.3568H69.0712V78.5949H78.833V88.3568H88.5949V0.5H78.833ZM30.0237 68.833H20.2619V59.0712H30.0237V68.833ZM30.0237 49.3093H20.2619V39.5474H30.0237V49.3093ZM30.0237 29.7856H20.2619V20.0237H30.0237V29.7856ZM78.833 68.833H69.0712V59.0712H78.833V68.833ZM78.833 49.3093H69.0712V39.5474H78.833V49.3093ZM78.833 29.7856H69.0712V20.0237H78.833V29.7856Z" fill="#B5B4B4"/>
<path d="M9.14205 102.545V112H8.03409L2.8821 104.577H2.78977V112H1.64489V102.545H2.75284L7.9233 109.987H8.01562V102.545H9.14205ZM14.1659 112.148C13.5258 112.148 12.9641 111.995 12.4809 111.691C12.0008 111.386 11.6253 110.96 11.3545 110.412C11.0867 109.864 10.9529 109.224 10.9529 108.491C10.9529 107.753 11.0867 107.108 11.3545 106.557C11.6253 106.006 12.0008 105.578 12.4809 105.274C12.9641 104.969 13.5258 104.817 14.1659 104.817C14.8061 104.817 15.3662 104.969 15.8463 105.274C16.3295 105.578 16.705 106.006 16.9727 106.557C17.2436 107.108 17.379 107.753 17.379 108.491C17.379 109.224 17.2436 109.864 16.9727 110.412C16.705 110.96 16.3295 111.386 15.8463 111.691C15.3662 111.995 14.8061 112.148 14.1659 112.148ZM14.1659 111.169C14.6522 111.169 15.0523 111.044 15.3662 110.795C15.6801 110.546 15.9125 110.218 16.0633 109.812C16.2141 109.406 16.2895 108.965 16.2895 108.491C16.2895 108.018 16.2141 107.576 16.0633 107.167C15.9125 106.757 15.6801 106.426 15.3662 106.174C15.0523 105.922 14.6522 105.795 14.1659 105.795C13.6797 105.795 13.2796 105.922 12.9656 106.174C12.6517 106.426 12.4194 106.757 12.2686 107.167C12.1177 107.576 12.0423 108.018 12.0423 108.491C12.0423 108.965 12.1177 109.406 12.2686 109.812C12.4194 110.218 12.6517 110.546 12.9656 110.795C13.2796 111.044 13.6797 111.169 14.1659 111.169ZM22.6983 112V104.909H23.7509V106.017H23.8432C23.9909 105.638 24.2295 105.345 24.5588 105.135C24.8881 104.923 25.2836 104.817 25.7452 104.817C26.213 104.817 26.6023 104.923 26.9132 105.135C27.2271 105.345 27.4718 105.638 27.6472 106.017H27.7211C27.9026 105.651 28.175 105.36 28.5382 105.145C28.9013 104.926 29.3368 104.817 29.8446 104.817C30.4786 104.817 30.9972 105.015 31.4004 105.412C31.8036 105.806 32.0051 106.42 32.0051 107.254V112H30.9157V107.254C30.9157 106.731 30.7725 106.357 30.4863 106.132C30.2001 105.908 29.8631 105.795 29.4753 105.795C28.9767 105.795 28.5905 105.946 28.3166 106.248C28.0427 106.546 27.9057 106.925 27.9057 107.384V112H26.7978V107.143C26.7978 106.74 26.667 106.416 26.4054 106.169C26.1438 105.92 25.8068 105.795 25.3944 105.795C25.1112 105.795 24.8465 105.871 24.6003 106.022C24.3572 106.172 24.1602 106.382 24.0094 106.65C23.8617 106.914 23.7878 107.22 23.7878 107.568V112H22.6983ZM36.8778 112.148C36.2377 112.148 35.676 111.995 35.1928 111.691C34.7127 111.386 34.3372 110.96 34.0664 110.412C33.7987 109.864 33.6648 109.224 33.6648 108.491C33.6648 107.753 33.7987 107.108 34.0664 106.557C34.3372 106.006 34.7127 105.578 35.1928 105.274C35.676 104.969 36.2377 104.817 36.8778 104.817C37.518 104.817 38.0781 104.969 38.5582 105.274C39.0414 105.578 39.4169 106.006 39.6847 106.557C39.9555 107.108 40.0909 107.753 40.0909 108.491C40.0909 109.224 39.9555 109.864 39.6847 110.412C39.4169 110.96 39.0414 111.386 38.5582 111.691C38.0781 111.995 37.518 112.148 36.8778 112.148ZM36.8778 111.169C37.3641 111.169 37.7642 111.044 38.0781 110.795C38.392 110.546 38.6244 110.218 38.7752 109.812C38.926 109.406 39.0014 108.965 39.0014 108.491C39.0014 108.018 38.926 107.576 38.7752 107.167C38.6244 106.757 38.392 106.426 38.0781 106.174C37.7642 105.922 37.3641 105.795 36.8778 105.795C36.3916 105.795 35.9915 105.922 35.6776 106.174C35.3636 106.426 35.1313 106.757 34.9805 107.167C34.8297 107.576 34.7543 108.018 34.7543 108.491C34.7543 108.965 34.8297 109.406 34.9805 109.812C35.1313 110.218 35.3636 110.546 35.6776 110.795C35.9915 111.044 36.3916 111.169 36.8778 111.169ZM47.2984 104.909L44.6762 112H43.5683L40.9461 104.909H42.1279L44.0853 110.56H44.1592L46.1166 104.909H47.2984ZM48.7364 112V104.909H49.8259V112H48.7364ZM49.2904 103.727C49.078 103.727 48.8949 103.655 48.741 103.51C48.5902 103.366 48.5148 103.192 48.5148 102.989C48.5148 102.786 48.5902 102.612 48.741 102.467C48.8949 102.322 49.078 102.25 49.2904 102.25C49.5028 102.25 49.6843 102.322 49.8351 102.467C49.989 102.612 50.066 102.786 50.066 102.989C50.066 103.192 49.989 103.366 49.8351 103.51C49.6843 103.655 49.5028 103.727 49.2904 103.727ZM54.7944 112.148C54.1112 112.148 53.5218 111.997 53.0263 111.695C52.5339 111.391 52.1538 110.966 51.886 110.421C51.6213 109.873 51.489 109.236 51.489 108.51C51.489 107.784 51.6213 107.143 51.886 106.589C52.1538 106.032 52.5262 105.598 53.0032 105.288C53.4833 104.974 54.0434 104.817 54.6836 104.817C55.0529 104.817 55.4176 104.878 55.7777 105.001C56.1378 105.125 56.4656 105.325 56.761 105.602C57.0565 105.875 57.2919 106.239 57.4673 106.691C57.6428 107.143 57.7305 107.701 57.7305 108.362V108.824H52.2646V107.882H56.6225C56.6225 107.482 56.5425 107.125 56.3825 106.811C56.2255 106.497 56.0008 106.249 55.7085 106.068C55.4192 105.886 55.0775 105.795 54.6836 105.795C54.2496 105.795 53.8742 105.903 53.5572 106.119C53.2433 106.331 53.0017 106.608 52.8324 106.95C52.6631 107.291 52.5785 107.657 52.5785 108.048V108.676C52.5785 109.212 52.6708 109.666 52.8555 110.038C53.0432 110.407 53.3033 110.689 53.6357 110.883C53.968 111.074 54.3543 111.169 54.7944 111.169C55.0806 111.169 55.3391 111.129 55.57 111.049C55.8039 110.966 56.0054 110.843 56.1747 110.68C56.344 110.513 56.4748 110.307 56.5671 110.061L57.6197 110.357C57.5089 110.714 57.3227 111.027 57.0611 111.298C56.7995 111.566 56.4763 111.775 56.0916 111.926C55.7069 112.074 55.2745 112.148 54.7944 112.148ZM64.4105 106.497L63.4318 106.774C63.3703 106.611 63.2795 106.453 63.1594 106.299C63.0425 106.142 62.8825 106.012 62.6793 105.911C62.4762 105.809 62.2161 105.759 61.8991 105.759C61.4652 105.759 61.1036 105.859 60.8143 106.059C60.5281 106.256 60.3849 106.506 60.3849 106.811C60.3849 107.082 60.4834 107.296 60.6804 107.453C60.8774 107.61 61.1851 107.741 61.6037 107.845L62.6562 108.104C63.2902 108.258 63.7627 108.493 64.0735 108.81C64.3844 109.124 64.5398 109.529 64.5398 110.024C64.5398 110.43 64.4228 110.794 64.1889 111.114C63.9581 111.434 63.6349 111.686 63.2195 111.871C62.804 112.055 62.3208 112.148 61.7699 112.148C61.0466 112.148 60.448 111.991 59.9741 111.677C59.5001 111.363 59.2 110.904 59.0739 110.301L60.108 110.043C60.2064 110.424 60.3926 110.71 60.6665 110.901C60.9435 111.092 61.3052 111.188 61.7514 111.188C62.2592 111.188 62.6624 111.08 62.9609 110.864C63.2625 110.646 63.4134 110.384 63.4134 110.08C63.4134 109.833 63.3272 109.627 63.1548 109.461C62.9825 109.292 62.7178 109.165 62.3608 109.082L61.179 108.805C60.5296 108.652 60.0526 108.413 59.7479 108.09C59.4463 107.764 59.2955 107.356 59.2955 106.866C59.2955 106.466 59.4078 106.112 59.6325 105.805C59.8602 105.497 60.1695 105.255 60.5604 105.08C60.9543 104.904 61.4006 104.817 61.8991 104.817C62.6009 104.817 63.1518 104.971 63.5518 105.278C63.955 105.586 64.2412 105.992 64.4105 106.497ZM72.9937 104.909V105.832H69.1713V104.909H72.9937ZM70.3161 112V103.93C70.3161 103.524 70.4115 103.186 70.6024 102.915C70.7932 102.644 71.0409 102.441 71.3456 102.305C71.6503 102.17 71.9719 102.102 72.3105 102.102C72.5782 102.102 72.7967 102.124 72.966 102.167C73.1353 102.21 73.2615 102.25 73.3445 102.287L73.0306 103.229C72.9752 103.21 72.8983 103.187 72.7998 103.159C72.7044 103.132 72.5782 103.118 72.4213 103.118C72.0612 103.118 71.8011 103.209 71.6411 103.39C71.4841 103.572 71.4056 103.838 71.4056 104.189V112H70.3161ZM77.1093 112.148C76.4691 112.148 75.9075 111.995 75.4243 111.691C74.9442 111.386 74.5687 110.96 74.2979 110.412C74.0301 109.864 73.8962 109.224 73.8962 108.491C73.8962 107.753 74.0301 107.108 74.2979 106.557C74.5687 106.006 74.9442 105.578 75.4243 105.274C75.9075 104.969 76.4691 104.817 77.1093 104.817C77.7494 104.817 78.3096 104.969 78.7897 105.274C79.2729 105.578 79.6483 106.006 79.9161 106.557C80.1869 107.108 80.3224 107.753 80.3224 108.491C80.3224 109.224 80.1869 109.864 79.9161 110.412C79.6483 110.96 79.2729 111.386 78.7897 111.691C78.3096 111.995 77.7494 112.148 77.1093 112.148ZM77.1093 111.169C77.5956 111.169 77.9956 111.044 78.3096 110.795C78.6235 110.546 78.8559 110.218 79.0067 109.812C79.1575 109.406 79.2329 108.965 79.2329 108.491C79.2329 108.018 79.1575 107.576 79.0067 107.167C78.8559 106.757 78.6235 106.426 78.3096 106.174C77.9956 105.922 77.5956 105.795 77.1093 105.795C76.623 105.795 76.2229 105.922 75.909 106.174C75.5951 106.426 75.3627 106.757 75.2119 107.167C75.0611 107.576 74.9857 108.018 74.9857 108.491C74.9857 108.965 75.0611 109.406 75.2119 109.812C75.3627 110.218 75.5951 110.546 75.909 110.795C76.2229 111.044 76.623 111.169 77.1093 111.169ZM86.4542 109.101V104.909H87.5437V112H86.4542V110.8H86.3803C86.2141 111.16 85.9556 111.466 85.6048 111.718C85.2539 111.968 84.8107 112.092 84.2752 112.092C83.832 112.092 83.4381 111.995 83.0934 111.801C82.7487 111.605 82.4779 111.309 82.2809 110.915C82.0839 110.518 81.9854 110.018 81.9854 109.415V104.909H83.0749V109.341C83.0749 109.858 83.2196 110.27 83.5089 110.578C83.8013 110.886 84.1737 111.04 84.6261 111.04C84.8969 111.04 85.1723 110.971 85.4524 110.832C85.7356 110.694 85.9725 110.481 86.1634 110.195C86.3572 109.909 86.4542 109.544 86.4542 109.101ZM90.6286 107.734V112H89.5392V104.909H90.5917V106.017H90.684C90.8502 105.657 91.1026 105.368 91.4411 105.149C91.7797 104.928 92.2167 104.817 92.7522 104.817C93.2323 104.817 93.6524 104.915 94.0125 105.112C94.3726 105.306 94.6527 105.602 94.8527 105.999C95.0528 106.393 95.1528 106.891 95.1528 107.494V112H94.0633V107.568C94.0633 107.011 93.9186 106.577 93.6294 106.266C93.3401 105.952 92.943 105.795 92.4383 105.795C92.0905 105.795 91.7797 105.871 91.5058 106.022C91.2349 106.172 91.021 106.393 90.8641 106.682C90.7071 106.971 90.6286 107.322 90.6286 107.734ZM99.8212 112.148C99.2303 112.148 98.7086 111.998 98.2562 111.7C97.8038 111.398 97.4499 110.974 97.1944 110.426C96.939 109.875 96.8113 109.224 96.8113 108.473C96.8113 107.728 96.939 107.082 97.1944 106.534C97.4499 105.986 97.8053 105.563 98.2608 105.265C98.7163 104.966 99.2426 104.817 99.8397 104.817C100.301 104.817 100.666 104.894 100.934 105.048C101.205 105.198 101.411 105.371 101.552 105.565C101.697 105.755 101.809 105.912 101.889 106.036H101.982V102.545H103.071V112H102.019V110.911H101.889C101.809 111.04 101.695 111.203 101.548 111.4C101.4 111.594 101.189 111.768 100.915 111.922C100.641 112.072 100.277 112.148 99.8212 112.148ZM99.9689 111.169C100.406 111.169 100.775 111.055 101.077 110.827C101.378 110.597 101.608 110.278 101.765 109.872C101.922 109.462 102 108.99 102 108.455C102 107.925 101.923 107.462 101.769 107.065C101.615 106.665 101.388 106.354 101.086 106.132C100.785 105.908 100.412 105.795 99.9689 105.795C99.5073 105.795 99.1226 105.914 98.8148 106.151C98.5101 106.385 98.2808 106.703 98.127 107.107C97.9761 107.507 97.9007 107.956 97.9007 108.455C97.9007 108.959 97.9777 109.418 98.1316 109.83C98.2885 110.24 98.5194 110.566 98.824 110.809C99.1318 111.049 99.5134 111.169 99.9689 111.169Z" fill="white" fill-opacity="0.67451"/>
</svg>
