<svg width="28" height="36" viewBox="0 0 28 36" fill="none" xmlns="http://www.w3.org/2000/svg">
<path opacity="0.87" d="M0.126404 36V3.375C0.126404 2.5213 0.44336 1.74163 1.18308 0.922214C1.58453 0.443882 2.49112 0 3.5014 0H23.7514C25.6154 0 27.1264 1.51102 27.1264 3.375V36L13.6264 28.125L0.126404 36Z" fill="#514F4F"/>
<path d="M18.4582 13.8642H14.3136V9.71959C14.3136 9.34164 14.0044 9.03241 13.6264 9.03241C13.2485 9.03241 12.9392 9.34164 12.9392 9.71959V13.8642H8.79467C8.41672 13.8642 8.10748 14.1734 8.10748 14.5514C8.10748 14.7403 8.18479 14.9121 8.30934 15.0367C8.4339 15.1612 8.60569 15.2385 8.79467 15.2385H12.9392V19.3831C12.9392 19.5721 13.0166 19.7439 13.1411 19.8684C13.2657 19.993 13.4375 20.0703 13.6264 20.0703C14.0044 20.0703 14.3136 19.7611 14.3136 19.3831V15.2385H18.4582C18.8361 15.2385 19.1454 14.9293 19.1454 14.5514C19.1454 14.1734 18.8361 13.8642 18.4582 13.8642Z" fill="white"/>
</svg>
